<svg version="1.1" id="Layer_1" xmlns="http://www.w3.org/2000/svg" xmlns:xlink="http://www.w3.org/1999/xlink" x="0px" y="0px"
	 width="100%" viewBox="0 0 2500 2500" enable-background="new 0 0 2500 2500" xml:space="preserve">
<path fill="#000000" opacity="1.000000" stroke="none" 
	d="
M1160.000000,2502.000000 
	C773.333313,2502.000000 387.666656,2502.000000 2.000000,2502.000000 
	C2.000000,1668.666626 2.000000,835.333313 2.000000,2.000000 
	C835.333313,2.000000 1668.666626,2.000000 2502.000000,2.000000 
	C2502.000000,835.333313 2502.000000,1668.666626 2502.000000,2502.000000 
	C2055.000000,2502.000000 1608.000000,2502.000000 1160.000000,2502.000000 
M1248.812378,372.673248 
	C1080.521118,540.958191 912.189209,709.202454 744.005493,877.594788 
	C728.259583,893.360229 712.959534,909.632446 698.303528,926.412720 
	C662.466431,967.444214 631.994263,1012.261047 606.560852,1060.434448 
	C576.107117,1118.116943 553.588501,1178.743652 539.316040,1242.454834 
	C530.435120,1282.098633 524.677002,1322.188354 522.538757,1362.684082 
	C520.908020,1393.568237 521.155701,1424.507812 523.438599,1455.461548 
	C525.642212,1485.341675 529.330444,1514.966675 535.022949,1544.322021 
	C549.833679,1620.698486 576.235596,1692.910889 614.205811,1760.828613 
	C644.406982,1814.849731 680.928589,1864.285522 723.660767,1909.028442 
	C764.526001,1951.816284 809.942078,1989.176147 859.818665,2021.072876 
	C907.981445,2051.873291 959.081116,2076.624268 1013.118958,2095.232666 
	C1054.389893,2109.444336 1096.548096,2120.053467 1139.762573,2126.667236 
	C1175.963135,2132.207275 1212.303223,2135.340332 1248.886963,2135.583740 
	C1261.835693,2135.669922 1274.787842,2134.641357 1287.743774,2134.372314 
	C1323.734985,2133.625000 1359.247681,2128.765137 1394.514648,2121.942627 
	C1468.244019,2107.680664 1538.181641,2082.647705 1604.027832,2046.591431 
	C1678.560425,2005.778687 1744.131104,1953.615479 1800.642456,1890.014771 
	C1851.921265,1832.302979 1893.150269,1768.235596 1924.191650,1697.594482 
	C1947.037720,1645.603149 1963.445801,1591.612915 1973.634766,1535.758179 
	C1981.462769,1492.846191 1985.321167,1449.532104 1985.596802,1405.924072 
	C1985.668091,1394.641724 1984.593140,1383.357056 1984.386597,1372.067139 
	C1983.709473,1335.069946 1978.806152,1298.568970 1971.791504,1262.308594 
	C1956.746826,1184.540771 1929.363281,1111.353760 1890.465576,1042.380493 
	C1863.691040,994.903809 1831.642090,951.278015 1795.204346,910.848389 
	C1787.508545,902.309631 1778.819580,894.665894 1771.863525,887.857910 
	C1728.786377,930.935364 1685.747192,973.974915 1642.404785,1017.317627 
	C1647.891479,1023.295227 1654.157471,1030.116455 1660.417480,1036.942871 
	C1698.081665,1078.015503 1728.098267,1124.189697 1751.490356,1174.657104 
	C1782.220337,1240.955688 1798.083130,1310.937378 1801.547363,1383.755737 
	C1802.956177,1413.368530 1801.195312,1442.999390 1797.372070,1472.354614 
	C1788.744995,1538.597900 1768.986084,1601.403564 1737.611206,1660.531006 
	C1708.119141,1716.110107 1669.917847,1764.946655 1623.780762,1807.484741 
	C1578.380493,1849.343506 1527.130981,1882.459961 1470.380005,1906.992310 
	C1407.710083,1934.083252 1342.085938,1948.411133 1274.071899,1951.495605 
	C1237.474609,1953.155396 1201.010254,1950.311646 1164.793579,1944.352661 
	C1101.460083,1933.932251 1041.795776,1913.162476 985.809326,1881.800415 
	C932.456970,1851.913818 885.736328,1813.831177 844.846802,1768.399048 
	C800.933777,1719.607666 767.174744,1664.557617 743.191589,1603.588135 
	C721.364990,1548.100830 709.015137,1490.478516 706.232422,1430.827881 
	C704.193359,1387.117065 707.048767,1343.809570 715.205566,1300.802002 
	C725.262329,1247.776855 743.003845,1197.494873 767.905884,1149.654053 
	C791.896606,1103.564331 821.495056,1061.393311 858.127319,1024.611206 
	C987.253174,894.957336 1116.770508,765.692993 1246.317383,636.459534 
	C1251.747437,631.042664 1253.866455,625.694092 1253.820312,618.152100 
	C1253.530518,570.824219 1253.701416,523.493713 1253.664673,476.164062 
	C1253.637817,441.502960 1253.526367,406.841888 1253.555054,370.940247 
	C1252.345947,371.278534 1251.136719,371.616791 1248.812378,372.673248 
M1445.236694,825.772705 
	C1468.595581,848.913635 1497.220947,856.483215 1528.724854,851.229492 
	C1580.780151,842.548462 1613.037231,793.223328 1606.472046,746.098999 
	C1600.923096,706.268555 1579.194336,679.561707 1541.677856,666.527832 
	C1498.973389,651.691650 1452.986328,669.177612 1429.384644,708.235779 
	C1407.109009,745.099609 1413.252808,795.319702 1445.236694,825.772705 
z"/>
<path fill="#ED4C2C" opacity="1.000000" stroke="none" 
	d="
M1253.452515,372.180817 
	C1253.526367,406.841888 1253.637817,441.502960 1253.664673,476.164062 
	C1253.701416,523.493713 1253.530518,570.824219 1253.820312,618.152100 
	C1253.866455,625.694092 1251.747437,631.042664 1246.317383,636.459534 
	C1116.770508,765.692993 987.253174,894.957336 858.127319,1024.611206 
	C821.495056,1061.393311 791.896606,1103.564331 767.905884,1149.654053 
	C743.003845,1197.494873 725.262329,1247.776855 715.205566,1300.802002 
	C707.048767,1343.809570 704.193359,1387.117065 706.232422,1430.827881 
	C709.015137,1490.478516 721.364990,1548.100830 743.191589,1603.588135 
	C767.174744,1664.557617 800.933777,1719.607666 844.846802,1768.399048 
	C885.736328,1813.831177 932.456970,1851.913818 985.809326,1881.800415 
	C1041.795776,1913.162476 1101.460083,1933.932251 1164.793579,1944.352661 
	C1201.010254,1950.311646 1237.474609,1953.155396 1274.071899,1951.495605 
	C1342.085938,1948.411133 1407.710083,1934.083252 1470.380005,1906.992310 
	C1527.130981,1882.459961 1578.380493,1849.343506 1623.780762,1807.484741 
	C1669.917847,1764.946655 1708.119141,1716.110107 1737.611206,1660.531006 
	C1768.986084,1601.403564 1788.744995,1538.597900 1797.372070,1472.354614 
	C1801.195312,1442.999390 1802.956177,1413.368530 1801.547363,1383.755737 
	C1798.083130,1310.937378 1782.220337,1240.955688 1751.490356,1174.657104 
	C1728.098267,1124.189697 1698.081665,1078.015503 1660.417480,1036.942871 
	C1654.157471,1030.116455 1647.891479,1023.295227 1642.404785,1017.317627 
	C1685.747192,973.974915 1728.786377,930.935364 1771.863525,887.857910 
	C1778.819580,894.665894 1787.508545,902.309631 1795.204346,910.848389 
	C1831.642090,951.278015 1863.691040,994.903809 1890.465576,1042.380493 
	C1929.363281,1111.353760 1956.746826,1184.540771 1971.791504,1262.308594 
	C1978.806152,1298.568970 1983.709473,1335.069946 1984.386597,1372.067139 
	C1984.593140,1383.357056 1985.668091,1394.641724 1985.596802,1405.924072 
	C1985.321167,1449.532104 1981.462769,1492.846191 1973.634766,1535.758179 
	C1963.445801,1591.612915 1947.037720,1645.603149 1924.191650,1697.594482 
	C1893.150269,1768.235596 1851.921265,1832.302979 1800.642456,1890.014771 
	C1744.131104,1953.615479 1678.560425,2005.778687 1604.027832,2046.591431 
	C1538.181641,2082.647705 1468.244019,2107.680664 1394.514648,2121.942627 
	C1359.247681,2128.765137 1323.734985,2133.625000 1287.743774,2134.372314 
	C1274.787842,2134.641357 1261.835693,2135.669922 1248.886963,2135.583740 
	C1212.303223,2135.340332 1175.963135,2132.207275 1139.762573,2126.667236 
	C1096.548096,2120.053467 1054.389893,2109.444336 1013.118958,2095.232666 
	C959.081116,2076.624268 907.981445,2051.873291 859.818665,2021.072876 
	C809.942078,1989.176147 764.526001,1951.816284 723.660767,1909.028442 
	C680.928589,1864.285522 644.406982,1814.849731 614.205811,1760.828613 
	C576.235596,1692.910889 549.833679,1620.698486 535.022949,1544.322021 
	C529.330444,1514.966675 525.642212,1485.341675 523.438599,1455.461548 
	C521.155701,1424.507812 520.908020,1393.568237 522.538757,1362.684082 
	C524.677002,1322.188354 530.435120,1282.098633 539.316040,1242.454834 
	C553.588501,1178.743652 576.107117,1118.116943 606.560852,1060.434448 
	C631.994263,1012.261047 662.466431,967.444214 698.303528,926.412720 
	C712.959534,909.632446 728.259583,893.360229 744.005493,877.594788 
	C912.189209,709.202454 1080.521118,540.958191 1249.956299,372.372192 
	C1251.884399,372.107727 1252.668457,372.144287 1253.452515,372.180817 
z"/>
<path fill="#ED4C2C" opacity="1.000000" stroke="none" 
	d="
M1444.736328,825.273071 
	C1413.252808,795.319702 1407.109009,745.099609 1429.384644,708.235779 
	C1452.986328,669.177612 1498.973389,651.691650 1541.677856,666.527832 
	C1579.194336,679.561707 1600.923096,706.268555 1606.472046,746.098999 
	C1613.037231,793.223328 1580.780151,842.548462 1528.724854,851.229492 
	C1497.220947,856.483215 1468.595581,848.913635 1444.736328,825.273071 
z"/>
<path fill="#B23921" opacity="1.000000" stroke="none" 
	d="
M1253.503784,371.560547 
	C1252.668457,372.144287 1251.884399,372.107727 1250.513916,372.013123 
	C1251.136719,371.616791 1252.345947,371.278534 1253.503784,371.560547 
z"/>
</svg>